<?xml version="1.0" encoding="utf-8"?>
<!-- Generator: Adobe Illustrator 23.0.1, SVG Export Plug-In . SVG Version: 6.00 Build 0)  -->
<svg version="1.1" id="レイヤー_1" xmlns="http://www.w3.org/2000/svg" xmlns:xlink="http://www.w3.org/1999/xlink" x="0px"
	 y="0px" viewBox="0 0 68 68" style="enable-background:new 0 0 68 68;" xml:space="preserve">
<style type="text/css">
	.st0{fill:#FFFFFF;}
	.st1{fill:#DF0011;}
</style>
<g>
	<g>
		<path class="st0" d="M34,65.3c-4.2-4.4-14.4-15.2-19.9-21.9C7.7,35.7,2,27.9,2,17.2C2,8.8,8.5,2,16.5,2C24,2,29.6,6.3,32,13.9
			c0.3,0.8,1,1.4,1.9,1.4h0.2c0.9,0,1.6-0.6,1.9-1.4C38.3,6.3,44,2,51.6,2C59.7,2,66,8.7,66,17.2c0,10.6-5.7,18.5-12.1,26.2
			C48.5,49.9,38.3,60.8,34,65.3z"/>
		<path class="st1" d="M51.6,4C58.6,4,64,9.8,64,17.2c0,10-5.5,17.5-11.6,24.9C47.5,48,38.8,57.3,34,62.4
			c-4.9-5.2-13.7-14.6-18.4-20.3C9.5,34.7,4,27.2,4,17.2C4,9.9,9.6,4,16.5,4C23.1,4,28,7.8,30.1,14.5c0.5,1.7,2.1,2.8,3.8,2.8h0.2
			c1.8,0,3.3-1.1,3.8-2.8C40,7.8,45,4,51.6,4 M51.6,0c-7.8,0-14.8,4.3-17.5,13.3h-0.2C31.1,4.3,24.2,0,16.5,0C7.4,0,0,7.6,0,17.2
			c0,11.3,6.2,19.7,12.6,27.5C18.6,52,30.8,64.9,33.9,68h0.2c3.1-3.1,15.3-16,21.4-23.4C61.9,36.9,68,28.6,68,17.2
			C68,7.8,60.9,0,51.6,0L51.6,0z"/>
	</g>
</g>
</svg>
