<?xml version="1.0" encoding="utf-8"?>
<!-- Generator: Adobe Illustrator 23.0.1, SVG Export Plug-In . SVG Version: 6.00 Build 0)  -->
<svg version="1.1" id="レイヤー_1" xmlns="http://www.w3.org/2000/svg" xmlns:xlink="http://www.w3.org/1999/xlink" x="0px"
	 y="0px" viewBox="0 0 120 40" style="enable-background:new 0 0 120 40;" xml:space="preserve">
<style type="text/css">
	.st0{fill:url(#SVGID_1_);stroke:#4F4F4F;stroke-width:0.5;stroke-miterlimit:10;}
	.st1{fill:url(#SVGID_2_);stroke:#4F4F4F;stroke-width:0.5;stroke-miterlimit:10;}
	.st2{fill:url(#SVGID_3_);stroke:#4F4F4F;stroke-width:0.5;stroke-miterlimit:10;}
	.st3{fill:url(#SVGID_4_);stroke:#4F4F4F;stroke-width:0.5;stroke-miterlimit:10;}
	.st4{fill:url(#SVGID_5_);}
	.st5{fill:url(#SVGID_6_);}
	.st6{fill:url(#SVGID_7_);}
	.st7{fill:url(#SVGID_8_);}
</style>
<g>
	<g>
		<linearGradient id="SVGID_1_" gradientUnits="userSpaceOnUse" x1="0.6444" y1="19.9002" x2="119.468" y2="23.4296">
			<stop  offset="0" style="stop-color:#000000"/>
			<stop  offset="1" style="stop-color:#FFFFFF"/>
		</linearGradient>
		<path class="st0" d="M2,4.89h4.01v26.79h15.77l-0.56,3.43H2V4.89z"/>
		<linearGradient id="SVGID_2_" gradientUnits="userSpaceOnUse" x1="0.675" y1="18.8698" x2="119.4986" y2="22.3992">
			<stop  offset="0" style="stop-color:#000000"/>
			<stop  offset="1" style="stop-color:#FFFFFF"/>
		</linearGradient>
		<path class="st1" d="M52.74,19.83c0,8.31-4.66,15.72-14.18,15.72c-8.9,0-13.86-6.88-13.86-15.55c0-8.65,5.07-15.55,14.21-15.55
			C47.41,4.45,52.74,10.84,52.74,19.83z M28.89,19.87c0,6.53,3.34,12.26,9.84,12.26c7.02,0,9.81-5.78,9.81-12.24
			c0-6.51-3.17-12.02-9.8-12.02C31.89,7.87,28.89,13.42,28.89,19.87z"/>
		<linearGradient id="SVGID_3_" gradientUnits="userSpaceOnUse" x1="0.7039" y1="17.8978" x2="119.5274" y2="21.4272">
			<stop  offset="0" style="stop-color:#000000"/>
			<stop  offset="1" style="stop-color:#FFFFFF"/>
		</linearGradient>
		<path class="st2" d="M83.51,35.11h-3.08c-0.2-0.58-0.32-1.93-0.38-4.1c-1.32,2.15-3.92,4.51-9.39,4.51
			c-8.72,0-13.35-6.62-13.35-15.22c0-9.05,4.96-15.85,14.09-15.85c7.02,0,11.44,3.8,12.31,9.21h-4.01
			c-1.03-3.38-3.46-5.86-8.39-5.86c-7.02,0-9.8,5.6-9.8,12.32c0,6.23,2.81,12.04,9.64,12.04c6.77,0,8.45-4.51,8.45-9.61v-0.32H71.1
			v-3.43h12.42V35.11z"/>
		<linearGradient id="SVGID_4_" gradientUnits="userSpaceOnUse" x1="0.7317" y1="16.9627" x2="119.5552" y2="20.4921">
			<stop  offset="0" style="stop-color:#000000"/>
			<stop  offset="1" style="stop-color:#FFFFFF"/>
		</linearGradient>
		<path class="st3" d="M117,19.83c0,8.31-4.66,15.72-14.18,15.72c-8.9,0-13.86-6.88-13.86-15.55c0-8.65,5.07-15.55,14.21-15.55
			C111.68,4.45,117,10.84,117,19.83z M93.15,19.87c0,6.53,3.34,12.26,9.84,12.26c7.02,0,9.81-5.78,9.81-12.24
			c0-6.51-3.17-12.02-9.8-12.02C96.15,7.87,93.15,13.42,93.15,19.87z"/>
	</g>
	<g>
		<linearGradient id="SVGID_5_" gradientUnits="userSpaceOnUse" x1="1.6444" y1="19.9002" x2="120.468" y2="23.4296">
			<stop  offset="0.1099" style="stop-color:#FFFFFF"/>
			<stop  offset="1" style="stop-color:#646362"/>
		</linearGradient>
		<path class="st4" d="M3,4.89h4.01v26.79h15.77l-0.56,3.43H3V4.89z"/>
		<linearGradient id="SVGID_6_" gradientUnits="userSpaceOnUse" x1="1.675" y1="18.8698" x2="120.4986" y2="22.3992">
			<stop  offset="0.1099" style="stop-color:#FFFFFF"/>
			<stop  offset="1" style="stop-color:#646362"/>
		</linearGradient>
		<path class="st5" d="M53.74,19.83c0,8.31-4.66,15.72-14.18,15.72c-8.9,0-13.86-6.88-13.86-15.55c0-8.65,5.07-15.55,14.21-15.55
			C48.41,4.45,53.74,10.84,53.74,19.83z M29.89,19.87c0,6.53,3.34,12.26,9.84,12.26c7.02,0,9.81-5.78,9.81-12.24
			c0-6.51-3.17-12.02-9.8-12.02C32.89,7.87,29.89,13.42,29.89,19.87z"/>
		<linearGradient id="SVGID_7_" gradientUnits="userSpaceOnUse" x1="1.7039" y1="17.8978" x2="120.5274" y2="21.4272">
			<stop  offset="0.1099" style="stop-color:#FFFFFF"/>
			<stop  offset="1" style="stop-color:#646362"/>
		</linearGradient>
		<path class="st6" d="M84.51,35.11h-3.08c-0.2-0.58-0.32-1.93-0.38-4.1c-1.32,2.15-3.92,4.51-9.39,4.51
			c-8.72,0-13.35-6.62-13.35-15.22c0-9.05,4.96-15.85,14.09-15.85c7.02,0,11.44,3.8,12.31,9.21h-4.01
			c-1.03-3.38-3.46-5.86-8.39-5.86c-7.02,0-9.8,5.6-9.8,12.32c0,6.23,2.81,12.04,9.64,12.04c6.77,0,8.45-4.51,8.45-9.61v-0.32H72.1
			v-3.43h12.42V35.11z"/>
		<linearGradient id="SVGID_8_" gradientUnits="userSpaceOnUse" x1="1.7317" y1="16.9627" x2="120.5552" y2="20.4921">
			<stop  offset="0.1099" style="stop-color:#FFFFFF"/>
			<stop  offset="1" style="stop-color:#646362"/>
		</linearGradient>
		<path class="st7" d="M118,19.83c0,8.31-4.66,15.72-14.18,15.72c-8.9,0-13.86-6.88-13.86-15.55c0-8.65,5.07-15.55,14.21-15.55
			C112.68,4.45,118,10.84,118,19.83z M94.15,19.87c0,6.53,3.34,12.26,9.84,12.26c7.02,0,9.81-5.78,9.81-12.24
			c0-6.51-3.17-12.02-9.8-12.02C97.15,7.87,94.15,13.42,94.15,19.87z"/>
	</g>
</g>
</svg>
