<?xml version="1.0" encoding="utf-8"?>
<!-- Generator: Adobe Illustrator 22.0.0, SVG Export Plug-In . SVG Version: 6.00 Build 0)  -->
<svg version="1.1" id="レイヤー_1" xmlns="http://www.w3.org/2000/svg" xmlns:xlink="http://www.w3.org/1999/xlink" x="0px"
	 y="0px" viewBox="0 0 90 120" style="enable-background:new 0 0 90 120;" xml:space="preserve">
<style type="text/css">
	.st0{fill:#64C5EC;}
	.st1{fill:#F6C8DD;}
	.st2{fill:#C8BB9B;}
	.st3{fill:#FFFFFF;}
	.st4{fill:#F29600;}
	.st5{fill:#1EAA39;}
	.st6{fill:#FFF000;}
	.st7{fill:#F09BC0;}
	.st8{fill:#E51373;}
	.st9{fill:#C7BA99;}
</style>
<g>
	<g>
		<path class="st0" d="M44.8,106.9c0.1,0.1,0.2,0.1,0.2,0.1c0.1,0,0.1-0.1,0.1-0.1c0-0.5,0.1-0.7,0.1-0.9c0,0,0-0.1,0-0.1
			c0-0.3-1.5-1-3-1v0.7C43.4,105.7,44.3,106.1,44.8,106.9z"/>
		<path class="st0" d="M46.1,111c0-1.1-0.9-2.1-3.4-2.6c-0.1,0-0.2,0-0.3-0.1v1.6c1.5,0.4,2,0.9,2,1.5c0,0.7-0.8,1.3-2,1.4v0.8
			C44.5,113.6,46.1,112.7,46.1,111z"/>
		<path class="st1" d="M42,112.9c-0.9,0-2.3-0.3-3.1-1.4c-0.1-0.1-0.1-0.1-0.2-0.1c-0.1,0-0.1,0-0.1,0.1c0,0.5-0.1,0.8-0.1,0.9
			c0,0,0,0.1,0,0.1c0,0.1,0,0.1,0.1,0.1c0.6,0.4,2,1,3.4,1c0.2,0,0.3,0,0.5,0v-0.8C42.2,112.9,42.1,112.9,42,112.9z"/>
		<path class="st1" d="M38.5,107.2c0,1.1,0.6,2,3.1,2.5c0.3,0.1,0.6,0.1,0.8,0.2v-1.6c-1.3-0.3-2.2-0.6-2.2-1.5
			c0-0.7,0.9-1.3,2.1-1.3c0,0,0.1,0,0.1,0v-0.7c0,0,0,0,0,0C40.3,104.9,38.5,105.7,38.5,107.2z"/>
	</g>
	<path class="st2" d="M28.4,91.3c-3.6,0-7.1-1-10.4-3.1c-3.1-1.9-5.9-4.7-8.3-8.1c-4.8-7-7.4-16.3-7.4-26.2s2.6-19.2,7.4-26.2
		c2.4-3.5,5.2-6.2,8.3-8.1c3.3-2,6.8-3.1,10.4-3.1c4.5,0,8.8,1.6,12.7,4.7C46,11.8,53.7,6.3,62,6.3c3.6,0,7.1,1,10.4,3.1
		c3.1,1.9,5.9,4.7,8.3,8.1c4.8,7,7.4,16.3,7.4,26.2c0,9.9-2.6,19.2-7.4,26.2c-2.4,3.5-5.2,6.2-8.3,8.1c-3.3,2-6.8,3.1-10.4,3.1
		c-4.5,0-8.8-1.6-12.7-4.7C44.4,85.8,36.7,91.3,28.4,91.3z"/>
	<path class="st3" d="M62,8.2c-8.5,0-15.9,6.3-20.3,15.9c-3.8-3.7-8.4-5.8-13.3-5.8C15,18.3,4.1,34.2,4.1,53.9S15,89.4,28.4,89.4
		c8.5,0,15.9-6.3,20.3-15.9c3.8,3.7,8.4,5.8,13.3,5.8c13.4,0,24.3-15.9,24.3-35.5S75.4,8.2,62,8.2z"/>
	<g>
		<circle class="st1" cx="28.7" cy="48.8" r="4"/>
		<circle class="st0" cx="39.7" cy="48.8" r="4"/>
		<circle class="st4" cx="50.7" cy="48.8" r="4"/>
		<circle class="st2" cx="61.7" cy="48.8" r="4"/>
	</g>
	<path class="st5" d="M10.4,107.6v5.8c0,0.1,0,0.2-0.1,0.2c0,0,0,0-0.1,0c-0.1,0-0.2,0-0.4,0c-0.1,0-0.3,0-0.4,0c-0.1,0-0.1,0-0.1,0
		c-0.1,0-0.1,0-0.1-0.1l-6-6.4v3.8c0,1,0.1,1.8,0.1,2.5c0,0.1-0.1,0.1-0.1,0.1h0c-0.1,0-0.3,0-0.5,0c-0.2,0-0.4,0-0.5,0c0,0,0,0,0,0
		c-0.1,0-0.1-0.1-0.1-0.1v0c0-0.7,0.1-1.5,0.1-2.5v-5.6c0-0.1,0-0.1,0.1-0.1c0,0,0,0,0,0c0,0,0,0,0.1,0c0.2,0,0.5,0,0.9-0.1
		c0,0,0,0,0,0c0.1,0,0.1,0.1,0.2,0.1l5.9,6v-3.6c0-0.9,0-1.7-0.1-2.4c0,0,0-0.1,0.1-0.1c0,0,0,0,0,0c0,0,0.1,0,0.2,0
		c0.3,0,0.6-0.1,0.8-0.1h0c0.1,0,0.1,0.1,0.1,0.1v0C10.4,105.8,10.4,106.7,10.4,107.6z"/>
	<path class="st6" d="M23.1,113.4c0,0.1,0,0.1-0.2,0.1c-0.3,0-0.7,0-0.9,0c-0.3,0-0.7,0-0.9,0c-0.1,0-0.1-0.1-0.1-0.1
		c-0.4-1-0.4-1.2-1-2.2h-4.1c-0.5,1-0.7,1.5-1,2.2c0,0.1-0.1,0.1-0.1,0.1c0,0,0,0,0,0c-0.2,0-0.4-0.1-0.6-0.1c-0.2,0-0.3,0-0.5,0
		c0,0,0,0,0,0c-0.1,0-0.1-0.1-0.1-0.1c0,0,0,0,0,0c1.3-2,3.2-5.8,4.1-8.1c0,0,0-0.1,0.1-0.1c0.4,0,0.6-0.1,0.9-0.1c0,0,0,0,0,0
		c0.1,0,0.1,0,0.1,0.1C19.9,107.1,21.7,110.8,23.1,113.4C23.1,113.4,23.1,113.4,23.1,113.4z M18,106.8l-1.7,3.6h3.4L18,106.8z"/>
	<path class="st7" d="M34.7,107.6v5.8c0,0.1,0,0.2-0.1,0.2c0,0,0,0-0.1,0c-0.1,0-0.2,0-0.4,0c-0.1,0-0.3,0-0.4,0c-0.1,0-0.1,0-0.1,0
		c-0.1,0-0.1,0-0.1-0.1l-6-6.4v3.8c0,1,0.1,1.8,0.1,2.5c0,0.1-0.1,0.1-0.1,0.1h0c-0.1,0-0.3,0-0.5,0c-0.2,0-0.4,0-0.5,0c0,0,0,0,0,0
		c-0.1,0-0.1-0.1-0.1-0.1v0c0-0.7,0.1-1.5,0.1-2.5v-5.6c0-0.1,0-0.1,0.1-0.1c0,0,0,0,0,0c0,0,0,0,0.1,0c0.2,0,0.5,0,0.9-0.1
		c0,0,0,0,0,0c0.1,0,0.1,0.1,0.2,0.1l5.9,6v-3.6c0-0.9,0-1.7-0.1-2.4c0,0,0-0.1,0.1-0.1c0,0,0,0,0,0c0,0,0.1,0,0.2,0
		c0.3,0,0.6-0.1,0.8-0.1h0c0.1,0,0.1,0.1,0.1,0.1v0C34.8,105.8,34.7,106.7,34.7,107.6z"/>
	<path class="st8" d="M58.2,113.5C58.2,113.5,58.1,113.5,58.2,113.5c-0.3,0-0.6-0.1-0.9-0.1c-0.3,0-0.6,0-0.8,0.1c0,0,0,0,0,0
		c-0.1,0-0.1-0.1-0.1-0.1c0-0.8,0.1-1.5,0.1-2.5v-1.5h-5v1.5c0,1,0,1.6,0.1,2.5c0,0.1,0,0.1-0.1,0.1c0,0,0,0,0,0
		c-0.3,0-0.6-0.1-0.9-0.1c-0.3,0-0.5,0-0.7,0.1c0,0,0,0,0,0c-0.1,0-0.1-0.1-0.1-0.1c0,0,0,0,0,0c0-0.8,0.1-1.5,0.1-2.5v-3.3
		c0-0.9-0.1-1.6-0.1-2.3c0,0,0,0,0,0c0-0.1,0-0.1,0.1-0.1c0,0,0,0,0,0c0.1,0,0.2,0,0.3,0c0.4,0,1-0.1,1.4-0.1c0,0,0,0,0,0
		c0.1,0,0.1,0.1,0.1,0.1c0,0.9-0.1,1.5-0.1,2.4v1.1h5v-1.1c0-0.9,0-1.6-0.1-2.3c0-0.1,0-0.1,0.1-0.1c0,0,0,0,0,0c0.1,0,0.2,0,0.3,0
		c0.5,0,1-0.1,1.3-0.1c0,0,0,0,0,0c0.1,0,0.1,0.1,0.1,0.1c0,0.9-0.1,1.5-0.1,2.4v3.3c0,1,0,1.8,0.1,2.5
		C58.3,113.5,58.3,113.5,58.2,113.5z"/>
	<path class="st4" d="M66.9,113.7c-3.2,0-5.1-2-5.1-4.4c0-2.4,1.9-4.4,5.1-4.4c3.2,0,5.1,2,5.1,4.4C72,111.7,70.1,113.7,66.9,113.7z
		 M70,109.2c0-2.2-1-3.6-3-3.6c-1.6,0-3.1,0.8-3.1,3.8c0,2.2,0.9,3.6,3,3.6C69.5,113,70,110.9,70,109.2z"/>
	<path class="st9" d="M86.6,107.7c-0.8,2.3-1.3,4-2,5.7c0,0-0.1,0.1-0.2,0.1c0,0,0,0-0.1,0c-0.1,0-0.2,0-0.4,0c-0.1,0-0.3,0-0.4,0
		c0,0,0,0,0,0c-0.1,0-0.1-0.1-0.2-0.1c-0.7-1.9-1.5-4.2-2.4-6.5c-0.7,2.2-1.5,4.6-2.2,6.5c0,0,0,0.1-0.2,0.1c0,0,0,0-0.1,0
		c-0.1,0-0.3,0-0.4,0c-0.1,0-0.2,0-0.3,0c0,0,0,0-0.1,0c-0.1,0-0.1-0.1-0.2-0.1c-0.7-2.1-1.8-5.4-2.8-8.1c0,0,0,0,0-0.1
		c0-0.1,0-0.1,0.1-0.1c0,0,0,0,0,0c0.1,0,0.1,0,0.2,0c0.6,0,0.9-0.1,1.3-0.2c0,0,0,0,0,0c0,0,0.1,0.1,0.1,0.1
		c0.8,2.5,2.1,6.2,2.1,6.2s1.3-4.2,1.9-6.1c0-0.1,0.1-0.1,0.1-0.1c0,0,0,0,0,0c0,0,0.1,0,0.2,0c0.3,0,0.7-0.1,1-0.1c0,0,0,0,0,0
		c0.1,0,0.1,0.1,0.1,0.1c0.8,2.5,2.2,6.3,2.2,6.3l1.1-3.8c0.3-0.9,0.4-1.6,0.7-2.4c0-0.1,0-0.1,0.1-0.1c0,0,0,0,0,0c0,0,0.1,0,0.1,0
		c0.3,0,0.8-0.1,1-0.1c0,0,0,0,0,0c0.1,0,0.1,0,0.1,0.1c0,0,0,0.1,0,0.1C87.2,106,86.9,106.7,86.6,107.7z"/>
</g>
</svg>
