<?xml version="1.0" encoding="utf-8"?>
<!-- Generator: Adobe Illustrator 22.0.0, SVG Export Plug-In . SVG Version: 6.00 Build 0)  -->
<svg version="1.1" id="レイヤー_1" xmlns="http://www.w3.org/2000/svg" xmlns:xlink="http://www.w3.org/1999/xlink" x="0px"
	 y="0px" viewBox="0 0 400 120" style="enable-background:new 0 0 400 120;" xml:space="preserve">
<style type="text/css">
	.st0{fill:#C8BB9B;}
	.st1{fill:#FFFFFF;}
	.st2{fill:#F6C8DD;}
	.st3{fill:#64C5EC;}
	.st4{fill:#F29600;}
	.st5{fill:#1EAA39;}
	.st6{fill:#FFF000;}
	.st7{fill:#F09BC0;}
	.st8{fill:#E51373;}
	.st9{fill:#C7BA99;}
</style>
<g>
	<path class="st0" d="M326.6,101.8c-4.2,0-8.2-1.2-12-3.5c-3.6-2.2-6.8-5.4-9.5-9.4c-5.5-8.1-8.6-18.8-8.6-30.1s3-22.1,8.6-30.1
		c2.7-4,5.9-7.2,9.5-9.4c3.8-2.3,7.8-3.5,12-3.5c5.2,0,10.2,1.8,14.6,5.4c5.7-10.7,14.5-17.1,24-17.1c4.2,0,8.2,1.2,12,3.5
		c3.6,2.2,6.8,5.4,9.5,9.4c5.5,8.1,8.6,18.8,8.6,30.1c0,11.4-3,22.1-8.6,30.1c-2.7,4-5.9,7.2-9.5,9.4c-3.8,2.3-7.8,3.5-12,3.5
		c-5.2,0-10.2-1.8-14.6-5.4C345,95.5,336.2,101.8,326.6,101.8z"/>
	<path class="st1" d="M365.3,6.1c-9.7,0-18.3,7.3-23.3,18.4c-4.4-4.2-9.7-6.7-15.3-6.7c-15.4,0-28,18.3-28,40.9s12.5,40.9,28,40.9
		c9.7,0,18.3-7.3,23.3-18.4c4.4,4.2,9.7,6.7,15.3,6.7c15.4,0,28-18.3,28-40.9S380.7,6.1,365.3,6.1z"/>
	<g>
		<circle class="st2" cx="326.9" cy="52.9" r="4.6"/>
		<circle class="st3" cx="339.6" cy="52.9" r="4.6"/>
		<circle class="st4" cx="352.3" cy="52.9" r="4.6"/>
		<circle class="st0" cx="365" cy="52.9" r="4.6"/>
	</g>
</g>
<g>
	<path class="st3" d="M136.4,82c0.2,0.3,0.5,0.4,0.7,0.4c0.2,0,0.4-0.2,0.4-0.4c0-1.6,0.2-2.1,0.4-2.6c0.1-0.1,0.1-0.2,0.1-0.3
		c0-0.9-4.5-2.9-9-2.9v2.1C132.1,78.5,134.8,79.9,136.4,82z"/>
	<path class="st3" d="M140,94.5c0-3.3-2.7-6.1-10.2-7.7c-0.3-0.1-0.5-0.1-0.8-0.2v4.7c4.4,1.3,6,2.8,6,4.6c0,2.2-2.4,3.9-6,4.1v2.3
		C135.3,101.9,140,99.5,140,94.5z"/>
	<path class="st2" d="M127.9,100.1c-2.6,0-6.7-0.8-9.2-4.1c-0.2-0.3-0.4-0.4-0.7-0.4c-0.2,0-0.4,0.1-0.4,0.4c0,1.6-0.2,2.3-0.4,2.7
		c-0.1,0.1-0.1,0.2-0.1,0.3c0,0.2,0.1,0.3,0.2,0.4c1.6,1.3,5.9,3,10.2,3c0.5,0,1,0,1.5,0V100C128.6,100,128.3,100.1,127.9,100.1z"/>
	<path class="st2" d="M117.5,83.2c0,3.2,1.9,5.8,9.1,7.5c0.9,0.2,1.7,0.4,2.4,0.6v-4.7c-3.7-0.8-6.7-1.7-6.7-4.3
		c0-2.2,2.7-3.8,6.3-3.8c0.1,0,0.3,0,0.4,0v-2.1c0,0,0,0,0,0C122.8,76.3,117.5,78.7,117.5,83.2z"/>
</g>
<path class="st5" d="M32,90.6l4.8,16.5c0.1,0.2,0.1,0.5-0.3,0.6c-0.1,0-0.1,0-0.2,0c-0.3,0-0.7,0.1-1.2,0.2c-0.4,0.1-0.7,0.2-1,0.4
	c-0.2,0.1-0.3,0.1-0.4,0.2c-0.2,0.1-0.3,0-0.5-0.1L10.9,95.2l3.1,10.9c0.8,2.8,1.6,5,2.3,7.1c0,0.1-0.1,0.4-0.3,0.4l0,0
	c-0.4,0-0.9,0.1-1.5,0.3c-0.5,0.2-1,0.3-1.3,0.5c0,0,0,0-0.1,0c-0.2,0.1-0.4-0.1-0.4-0.2l0,0c-0.5-2.1-1-4.4-1.8-7.3L6.2,91
	c-0.1-0.2-0.1-0.4,0.2-0.5c0,0,0,0,0.1,0c0.1,0,0.1,0,0.2-0.1c0.6-0.2,1.5-0.5,2.4-1c0,0,0.1,0,0.1,0c0.2-0.1,0.5,0,0.7,0.2
	l21.9,12.3l-3-10.2c-0.8-2.6-1.5-4.7-2.2-6.6c0-0.1,0-0.4,0.3-0.4c0,0,0,0,0.1,0c0.1,0,0.3-0.1,0.5-0.1c0.8-0.2,1.7-0.7,2.3-1l0,0
	c0.2-0.1,0.4,0.1,0.4,0.2l0,0C30.7,85.6,31.2,88,32,90.6z"/>
<path class="st6" d="M72.8,101.2c0,0.2-0.1,0.4-0.5,0.4c-1-0.1-1.9-0.1-2.8-0.1c-1,0-1.9,0-2.8,0.1c-0.3,0-0.3-0.2-0.4-0.3
	c-1.2-2.9-1.3-3.5-2.9-6.7H51.3c-1.5,3.1-2,4.3-3,6.7c-0.1,0.2-0.2,0.3-0.4,0.3c0,0,0,0-0.1,0c-0.5-0.1-1.2-0.2-1.7-0.2
	c-0.5,0-1,0.1-1.4,0.1c0,0,0,0-0.1,0c-0.2,0-0.3-0.2-0.3-0.4c0,0,0-0.1,0-0.1c4-6.1,9.4-17.3,12.3-24.2c0.1-0.1,0.1-0.2,0.4-0.2
	c1.2,0,1.9-0.2,2.8-0.3c0,0,0.1,0,0.1,0c0.2,0,0.3,0.1,0.3,0.2c2.9,6,8.3,16.9,12.5,24.5C72.8,101.1,72.8,101.1,72.8,101.2z
	 M57.4,81.7l-5.1,10.7h10.1L57.4,81.7z"/>
<path class="st7" d="M106.2,93.9v17.2c0,0.2,0,0.5-0.4,0.5c-0.1,0-0.1,0-0.2,0c-0.3-0.1-0.7-0.1-1.2-0.1c-0.4,0-0.8,0-1.1,0.1
	c-0.2,0-0.3,0.1-0.4,0.1c-0.2,0-0.3-0.1-0.4-0.2L84.7,92.4v11.3c0,2.9,0.2,5.2,0.3,7.5c0,0.2-0.2,0.3-0.4,0.3h0
	c-0.4-0.1-0.9-0.1-1.5-0.1c-0.5,0-1.1,0-1.4,0.1c0,0,0,0-0.1,0c-0.2,0-0.3-0.2-0.3-0.3v0c0.1-2.1,0.3-4.6,0.3-7.5V87
	c0-0.2,0-0.4,0.3-0.4c0,0,0,0,0.1,0c0.1,0,0.1,0,0.3,0c0.6,0,1.6-0.1,2.6-0.3c0,0,0.1,0,0.1,0c0.3,0,0.4,0.2,0.6,0.3l17.6,17.9V93.9
	c0-2.7-0.1-5-0.2-7c0-0.1,0.1-0.3,0.4-0.3c0,0,0,0,0.1,0c0.1,0,0.3,0,0.5,0c0.8,0,1.8-0.2,2.4-0.3h0c0.2,0,0.4,0.2,0.4,0.3v0
	C106.3,88.7,106.2,91.2,106.2,93.9z"/>
<path class="st8" d="M175.9,111.6c0,0-0.1,0-0.1,0c-0.7-0.1-1.6-0.2-2.6-0.2c-0.9,0-1.7,0.1-2.4,0.2c0,0-0.1,0-0.1,0
	c-0.3,0-0.3-0.2-0.3-0.4c0.1-2.5,0.3-4.6,0.3-7.5v-4.3h-14.8v4.3c0,2.9,0.1,4.8,0.2,7.5c0,0.2,0,0.4-0.3,0.4c0,0,0,0,0,0
	c-0.8-0.1-1.9-0.2-2.8-0.2c-0.8,0-1.6,0-2.2,0.2c0,0-0.1,0-0.1,0c-0.2,0-0.3-0.2-0.3-0.3c0-0.1,0-0.1,0-0.1c0-2.3,0.2-4.6,0.2-7.5
	v-9.8c0-2.7-0.2-4.7-0.2-6.9c0,0,0-0.1,0-0.1c0-0.2,0.1-0.3,0.3-0.3c0,0,0.1,0,0.1,0c0.3,0,0.5,0.1,0.8,0.1c1.2,0,2.8-0.3,4.1-0.4
	c0,0,0,0,0,0c0.3,0,0.3,0.2,0.3,0.4c-0.1,2.7-0.2,4.4-0.2,7.3V97h14.8v-3.1c0-2.7-0.1-4.7-0.3-6.9c0-0.2,0-0.4,0.3-0.4
	c0,0,0.1,0,0.1,0c0.3,0,0.7,0.1,1,0.1c1.4,0,3-0.2,3.9-0.4c0,0,0,0,0.1,0c0.3,0,0.4,0.2,0.4,0.4c0,2.7-0.2,4.4-0.2,7.2v9.8
	c0,2.9,0.1,5.2,0.2,7.5C176.2,111.4,176.2,111.6,175.9,111.6z"/>
<path class="st4" d="M201.9,102.3c-9.5,0-15.2-5.8-15.2-13c0-7.2,5.6-13,15.2-13c9.5,0,15.2,5.8,15.2,13
	C217.1,96.5,211.4,102.3,201.9,102.3z M211,88.9c0-6.6-2.8-10.6-9-10.6c-4.8,0-9.3,2.5-9.3,11.2c0,6.7,2.8,10.7,9,10.7
	C209.5,100.2,211,94,211,88.9z"/>
<path class="st9" d="M260.2,94.1c-2.5,6.8-3.8,12-5.8,17.1c0,0.1-0.2,0.4-0.6,0.4c0,0-0.1,0-0.2,0c-0.3-0.1-0.7-0.1-1.1-0.1
	c-0.4,0-0.8,0-1.1,0.1c-0.1,0-0.1,0-0.1,0c-0.4,0-0.4-0.3-0.5-0.4c-1.9-5.7-4.6-12.6-7-19.4c-2.2,6.5-4.4,13.7-6.4,19.4
	c0,0.1-0.1,0.4-0.5,0.4c-0.1,0-0.1,0-0.2,0c-0.4-0.1-0.8-0.1-1.2-0.1c-0.4,0-0.7,0-1,0.1c-0.1,0-0.1,0-0.2,0c-0.3,0-0.4-0.3-0.5-0.4
	c-2.2-6.2-5.4-16-8.4-24.1c0,0,0-0.1,0-0.2c0-0.2,0.1-0.4,0.3-0.4c0,0,0,0,0.1,0c0.2,0,0.4,0,0.6,0c1.7,0,2.8-0.4,4-0.5
	c0,0,0,0,0.1,0c0.1,0,0.2,0.2,0.2,0.3c2.5,7.5,6.2,18.5,6.2,18.5s4-12.3,5.6-18c0.1-0.2,0.2-0.3,0.4-0.3c0,0,0.1,0,0.1,0
	c0.1,0,0.3,0,0.5,0c0.9,0,2.2-0.2,3.1-0.3c0,0,0.1,0,0.1,0c0.2,0,0.2,0.2,0.3,0.3c2.5,7.4,6.6,18.7,6.6,18.7L257,94
	c0.8-2.8,1.3-4.7,1.9-7.1c0.1-0.2,0.1-0.3,0.3-0.3c0,0,0.1,0,0.1,0c0.1,0,0.2,0,0.3,0c0.9,0,2.4-0.2,3-0.2c0,0,0.1,0,0.1,0
	c0.2,0,0.3,0.1,0.3,0.2c0,0.1,0,0.2-0.1,0.2C262.1,89.3,261.3,91.3,260.2,94.1z"/>
<g>
	<circle class="st0" cx="284.2" cy="98.3" r="8.1"/>
	<circle class="st1" cx="284.2" cy="98.3" r="5.7"/>
</g>
</svg>
