<?xml version="1.0" encoding="utf-8"?>
<!-- Generator: Adobe Illustrator 23.0.1, SVG Export Plug-In . SVG Version: 6.00 Build 0)  -->
<svg version="1.1" id="レイヤー_1" xmlns="http://www.w3.org/2000/svg" xmlns:xlink="http://www.w3.org/1999/xlink" x="0px"
	 y="0px" viewBox="0 0 308.9 64.12" style="enable-background:new 0 0 308.9 64.12;" xml:space="preserve">
<style type="text/css">
	.st0{fill:#FFFFFF;stroke:#727171;stroke-width:0.9891;stroke-miterlimit:10;}
</style>
<path class="st0" d="M297.8,57.06H11.12c-3.68,0-6.67-3.11-6.67-6.94V14.01c0-3.84,2.99-6.94,6.67-6.94h286.66
	c3.68,0,6.67,3.11,6.67,6.94v36.11C304.45,53.95,301.48,57.06,297.8,57.06z"/>
<g>
	<path d="M47.32,38.45v1.59H27.84v-1.61h12.17c0.45-2.95,1.12-8.7,1.38-11.86H30.34v-1.59h11.67l0.33-0.12l1.28,0.6
		c-0.04,0.12-0.19,0.21-0.37,0.25c-0.27,3.06-1.07,9.52-1.51,12.72h5.58V38.45z"/>
	<path d="M51.04,30.99h19.41v1.65H51.92c-0.14,0.23-0.45,0.39-0.74,0.45L51.04,30.99z"/>
	<path d="M94.22,29.11h-4.98v1.55c0,4.44-1.38,8.96-7.46,11.69c-0.31-0.37-0.79-0.83-1.18-1.16c5.91-2.56,7-6.69,7-10.51v-1.59H80.2
		v5.74h-1.65v-5.74H74V27.5h4.56v-5.1l2.23,0.14c-0.02,0.23-0.23,0.45-0.58,0.48v4.46h7.39v-5.37l2.21,0.14
		c-0.02,0.19-0.21,0.39-0.56,0.45v4.79h4.98V29.11z M90.63,22.96c1.01,0.91,2.13,2.25,2.77,3.3l-0.83,0.62
		c-0.66-1.05-1.78-2.44-2.71-3.28L90.63,22.96z M92.94,21.02c1.05,0.93,2.17,2.25,2.79,3.32l-0.81,0.62
		c-0.68-1.05-1.82-2.44-2.77-3.3L92.94,21.02z"/>
	<path d="M97.57,30.99h19.41v1.65H98.44c-0.14,0.23-0.45,0.39-0.74,0.45L97.57,30.99z"/>
	<path d="M128.74,22.24l1.09,0.56c-0.08,0.12-0.16,0.19-0.25,0.23c-1.63,4.17-5.25,7.56-8.72,9.32c-0.21-0.35-0.62-0.85-0.95-1.14
		c2.91-1.36,6.15-4.25,7.72-7.56h-6.44v-1.32h7.27L128.74,22.24z M134.48,37.42l1.74,0.6c-0.04,0.14-0.23,0.21-0.47,0.21
		c-0.39,0.81-1.01,1.98-1.55,2.89h6.77v1.36h-20.55v-1.36h6.53c-0.27-0.97-0.85-2.25-1.43-3.22l1.32-0.43
		c0.72,1.09,1.4,2.54,1.65,3.51l-0.33,0.12h4.54c0.58-1.01,1.36-2.58,1.73-3.7H124.3v-5.95h12.83v5.95h-2.66V37.42z M121.86,24.71
		c1.18,0.68,2.56,1.73,3.22,2.48l-0.89,1.01c-0.66-0.81-2-1.88-3.18-2.62L121.86,24.71z M125.82,32.79v3.3h9.73v-3.3H125.82z
		 M126.28,29.59v-1.38h8.72v1.38H126.28z M138.63,22.77c-0.1,0.12-0.31,0.14-0.48,0.12c-0.83,0.79-2.21,1.88-3.35,2.68
		c0.54,0.68,1.09,1.32,1.71,1.94c1.12-0.85,2.44-2.09,3.22-3l1.43,1.03c-0.1,0.12-0.27,0.16-0.48,0.14
		c-0.83,0.79-2.13,1.88-3.24,2.69c1.26,1.09,2.64,2,4.07,2.6c-0.35,0.31-0.81,0.89-1.07,1.28c-3.97-1.9-7.46-5.85-9.34-10.35
		l1.32-0.43c0.45,1.07,1.03,2.09,1.67,3.1c1.09-0.85,2.35-2,3.12-2.83L138.63,22.77z"/>
	<path d="M152.26,40.04c1.18-0.74,2.79-1.82,4.34-2.87l0.45,1.16c-1.53,1.18-3.12,2.35-4.19,3.12c0,0.19-0.1,0.35-0.21,0.43
		l-0.91-1.53l0.33-0.19v-0.02c-2.99,0.56-6.09,1.12-8.06,1.47c-0.02,0.16-0.16,0.27-0.33,0.33l-0.54-1.74
		c1.12-0.14,2.54-0.37,4.07-0.6v-6.84h-3.82v-1.4h3.82v-2.68h-2.48v-0.48c-0.23,0.27-0.47,0.54-0.72,0.79
		c-0.23-0.35-0.74-0.81-1.09-1.03c2.02-2,3.55-4.61,4.42-6.55l1.88,0.31c-0.02,0.16-0.16,0.27-0.47,0.27l-0.04,0.1
		c1.43,1.2,3.14,2.79,3.97,3.84l-0.95,1.24c-0.78-1.03-2.31-2.56-3.7-3.8c-0.68,1.26-1.51,2.64-2.56,3.95h5.85v1.38h-2.69v2.68h3.47
		v1.4h-3.47v6.63l3.55-0.58L152.26,40.04z M145.01,38.61c-0.08-1.18-0.48-3-1.01-4.42l1.12-0.27c0.56,1.4,0.97,3.2,1.09,4.36
		L145.01,38.61z M152.14,34.28c-0.08,0.12-0.23,0.21-0.48,0.21c-0.27,1.12-0.79,2.83-1.24,3.94l-1.03-0.39
		c0.39-1.14,0.93-3.04,1.16-4.3L152.14,34.28z M159.03,30.93v0.66c0.66,3.24,2.23,7.15,5.99,9c-0.33,0.31-0.78,0.93-1.01,1.32
		c-2.54-1.42-4.07-3.82-5-6.16v5.58c0,1.63-0.78,1.71-3.41,1.71c-0.04-0.39-0.23-0.97-0.43-1.4c0.93,0.02,1.76,0.02,2.02,0.02
		c0.27-0.02,0.35-0.1,0.35-0.35V30.93h-5.56v-1.4h9.29v-2.29h-7.72v-1.3h7.72v-2.19h-8.16v-1.38h9.62v7.13h1.96v1.4h-5.64V30.93z
		 M155.23,36.41c-0.45-0.89-1.51-2.21-2.46-3.16l1.09-0.7c0.97,0.91,2.05,2.21,2.54,3.06L155.23,36.41z M164.72,33.27
		c-0.08,0.14-0.31,0.16-0.48,0.14c-0.66,0.89-1.76,2.17-2.6,3c-0.02-0.02-1.01-0.74-1.03-0.74c0.85-0.89,2.02-2.37,2.66-3.39
		L164.72,33.27z"/>
	<path d="M168.83,26.16c0,2.07-0.39,4.58-1.36,6.07c-0.85-0.5-1.01-0.58-1.16-0.64c0.83-1.28,1.2-3.64,1.26-5.6L168.83,26.16z
		 M169.75,21.41l1.98,0.14c-0.02,0.16-0.14,0.27-0.45,0.31v21.13h-1.53L169.75,21.41L169.75,21.41z M173.31,28.93
		c-0.33-0.89-1.05-2.35-1.67-3.41l1.07-0.54c0.68,1.05,1.42,2.42,1.73,3.28L173.31,28.93z M181.47,29.24h6.49v1.32h-14.38v-1.32
		h6.28v-1.71h-4.54v-1.2h4.54v-1.59h-5.47v-1.26h5.47v-2.09l2.09,0.14c-0.02,0.16-0.14,0.27-0.47,0.33v1.63h5.68v1.26h-5.68v1.59
		h4.73v1.2h-4.73v1.71H181.47z M185.88,32.11v9.23c0,1.51-0.6,1.67-3.84,1.67c-0.08-0.39-0.27-0.95-0.48-1.36
		c0.66,0.02,1.26,0.04,1.71,0.04c0.95,0,1.07,0,1.07-0.37v-2.07h-7.23v3.7h-1.51V32.09h10.29V32.11z M184.32,33.39h-7.23v1.74h7.23
		V33.39z M177.09,38.1h7.23v-1.76h-7.23V38.1z"/>
	<path d="M195.86,25.15v2.6h4.67v1.38h-10.78v-1.38h4.65v-2.6h-3.72v-1.36h3.72v-2.35l1.9,0.12c-0.02,0.16-0.14,0.27-0.45,0.31v1.94
		h3.7v1.36h-3.7V25.15z M196.27,32.85c0.48-0.93,1.09-2.46,1.4-3.47l1.65,0.56c-0.08,0.14-0.23,0.21-0.48,0.21
		c-0.37,0.81-0.95,2.05-1.49,2.89h2.79v1.38h-4.28v2.69h3.97v1.38h-3.97v4.58h-1.45v-4.58h-3.99v-1.38h3.99v-2.69h-4.3v-1.38h6.61
		L196.27,32.85z M192.45,32.89c-0.12-0.83-0.56-2.19-1.07-3.22l1.2-0.33c0.5,1.01,0.97,2.33,1.12,3.14L192.45,32.89z M209.51,31.35
		l0.97,0.35c-0.04,0.14-0.1,0.21-0.16,0.31c-0.43,2.46-1.28,4.9-2.56,7c1.03,1.16,2.21,2.09,3.53,2.68
		c-0.37,0.33-0.85,0.93-1.09,1.36c-1.26-0.66-2.37-1.59-3.35-2.71c-0.79,0.97-1.67,1.84-2.71,2.54c-0.25-0.35-0.7-0.79-1.07-1.05
		c1.09-0.72,2.05-1.65,2.83-2.75c-1.14-1.61-2.02-3.51-2.62-5.51l1.26-0.33c0.5,1.61,1.28,3.16,2.21,4.52
		c0.85-1.51,1.45-3.22,1.84-4.92h-5.93v10.26h-1.49V22.55h9.05v5.84c0,1.67-0.83,1.67-3.99,1.67c-0.04-0.39-0.27-0.95-0.47-1.36
		c0.6,0,1.18,0.02,1.63,0.02c1.28,0,1.38,0,1.38-0.37v-4.36h-6.09v7.46h6.57L209.51,31.35z"/>
	<path d="M255.76,34.94h-8.05c-0.23,1.47-0.78,2.87-1.88,4.09c2.81,1.71,6.77,2.27,12.12,2.56c-0.31,0.35-0.62,1.01-0.72,1.51
		c-5.47-0.37-9.54-1.12-12.48-3.04c-1.61,1.24-3.97,2.25-7.48,3.02c-0.19-0.35-0.58-1.01-0.91-1.36c3.41-0.66,5.68-1.55,7.13-2.64
		c-1.03-0.91-1.9-2.02-2.6-3.39l1.36-0.47c0.66,1.18,1.42,2.13,2.35,2.91c0.91-0.97,1.36-2.07,1.53-3.22h-7.19v-8.74h7.37v-2.04
		h-9.56v-1.43h20.49v1.43h-9.34v2.04h7.89v8.76H255.76z M240.43,27.44v2.48h5.85v-2.48H240.43z M240.43,33.68h5.84
		c0.02-0.43,0.02-0.83,0.02-1.28v-1.26h-5.85L240.43,33.68L240.43,33.68z M254.19,33.68v-2.54h-6.32v1.28c0,0.43,0,0.83-0.02,1.26
		H254.19z M254.19,27.44h-6.32v2.48h6.32V27.44z"/>
	<path d="M265.77,35.31c0.85,0.6,3.3,2.58,3.88,3.08l-0.93,1.18c-0.54-0.6-1.9-1.88-2.95-2.81v6.26h-1.53v-6.42
		c-1.12,1.84-2.56,3.55-3.86,4.58c-0.25-0.37-0.72-0.89-1.05-1.14c1.65-1.09,3.47-3.28,4.61-5.41h-4.17v-1.38h4.46v-2.46h-4.77
		v-1.38h2.87c-0.12-1.01-0.5-2.46-1.01-3.59l1.26-0.35c0.54,1.16,0.97,2.68,1.09,3.66l-0.85,0.25h3.9
		c-0.31-0.12-0.62-0.23-0.66-0.23c0.47-1.03,1.03-2.66,1.3-3.76l1.76,0.56c-0.04,0.14-0.21,0.21-0.47,0.23
		c-0.33,0.91-0.89,2.25-1.36,3.2h3.39v1.38h-4.71c-0.08,0.02-0.14,0.04-0.23,0.04v2.42h4.61v1.38h-4.61v0.7H265.77z M270.22,24.03
		v1.36h-10.29v-1.36h4.3v-2.6l1.98,0.12c-0.02,0.16-0.14,0.27-0.45,0.33v2.17h4.46V24.03z M281.06,29.42v1.47h-2.75v12.14h-1.53
		V30.89h-3.68v0.85c0,3.49-0.45,8.08-3.8,11.32c-0.19-0.35-0.72-0.89-1.09-1.09c3.04-2.93,3.39-6.96,3.39-10.26v-8.08l1.14,0.37
		c2.42-0.7,5.02-1.65,6.49-2.52l1.55,1.18c-0.08,0.08-0.23,0.12-0.48,0.08c-1.73,0.85-4.58,1.82-7.21,2.46v4.21H281.06z"/>
</g>
</svg>
